<svg width="238" height="238" viewBox="0 0 238 238" fill="none" xmlns="http://www.w3.org/2000/svg">
<rect width="238" height="238" rx="119" fill="#00A1E6"/>
<path d="M119 44L112.125 51.6549C112.125 51.6549 100.392 64.8688 88.5667 82.0012C76.7417 99.1337 64 119.638 64 139.322C64 153.823 69.7946 167.731 80.1091 177.985C90.4236 188.239 104.413 194 119 194C133.587 194 147.576 188.239 157.891 177.985C168.205 167.731 174 153.823 174 139.322C174 119.638 161.258 99.1337 149.433 82.0012C137.608 64.8688 125.875 51.6549 125.875 51.6549L119 44ZM119 72.5237C123.033 77.2625 126.7 81.181 134.4 92.2989C145.492 108.338 155.667 128.751 155.667 139.322C155.667 159.553 139.35 175.774 119 175.774C98.65 175.774 82.3333 159.553 82.3333 139.322C82.3333 128.751 92.5083 108.338 103.6 92.2989C111.3 81.181 114.967 77.2625 119 72.5237Z" fill="white"/>
</svg>
